
        <svg xmlns="http://www.w3.org/2000/svg" xmlns:xlink="http://www.w3.org/1999/xlink" version="1.1" width="3133.3333333333335" 
        height="1093.3333333333333" viewBox="0 0 3133.3333333333335 1093.3333333333333">
			
			<g transform="scale(6.666666666666667) translate(10, 10)">
				<defs id="SvgjsDefs1618"><linearGradient id="SvgjsLinearGradient1627"><stop id="SvgjsStop1628" stop-color="#ef4136" offset="0"></stop><stop id="SvgjsStop1629" stop-color="#fbb040" offset="1"></stop></linearGradient><linearGradient id="SvgjsLinearGradient1630"><stop id="SvgjsStop1631" stop-color="#ef4136" offset="0"></stop><stop id="SvgjsStop1632" stop-color="#fbb040" offset="1"></stop></linearGradient><linearGradient id="SvgjsLinearGradient1633"><stop id="SvgjsStop1634" stop-color="#ef4136" offset="0"></stop><stop id="SvgjsStop1635" stop-color="#fbb040" offset="1"></stop></linearGradient><linearGradient id="SvgjsLinearGradient1636"><stop id="SvgjsStop1637" stop-color="#ef4136" offset="0"></stop><stop id="SvgjsStop1638" stop-color="#fbb040" offset="1"></stop></linearGradient></defs><g id="SvgjsG1619" featureKey="symbolContainer" transform="matrix(0.7181758491234574,0,0,0.7181758491234574,306,0)" fill="url(#SvgjsLinearGradient1627)"><path xmlns="http://www.w3.org/2000/svg" d="M100.254 0C44.974 0 0 44.974 0 100.254s44.974 100.254 100.254 100.254c55.28 0 100.254-44.974 100.254-100.254S155.534 0 100.254 0zm0 195.508C47.731 195.508 5 152.777 5 100.254S47.731 5 100.254 5s95.254 42.73 95.254 95.254-42.731 95.254-95.254 95.254z"></path></g><g id="SvgjsG1620" featureKey="monogramFeature-0" transform="matrix(1.3484551185010472,0,0,1.3484551185010472,339.24828526281686,14.650265799973432)" fill="url(#SvgjsLinearGradient1630)"><path d="M52.82 25.473999999999997 l0 7.1828 l-34.121 19.996 l34.121 0 l0 7.0431 l-47.813 0 l0 -7.1828 l34.121 -19.997 l-34.121 0 l0 -7.0427 l47.813 0 z"></path></g><g id="SvgjsG1621" featureKey="nameFeature-0" transform="matrix(1.9784986696255227,0,0,1.9784986696255227,-6.606208446596338,1.4895729515791238)" fill="url(#SvgjsLinearGradient1633)"><path d="M35.214 16.983 l0 4.7885 l-22.748 13.331 l22.748 0 l0 4.6954 l-31.875 0 l0 -4.7885 l22.748 -13.331 l-22.748 0 l0 -4.6951 l31.875 0 z M58.271 15.421 l18.353 24.38 l-5.9015 0 l-5.132 -6.7948 l-14.639 0 l-5.0572 6.7948 l-5.8354 0 z M54.472 28.311 l7.5966 0 l-3.7984 -5.0644 z M108.97900000000001 35.3 l0.080272 4.6484 l-2.3241 0.04004 c-0.030078 0.0005078 -2.055 0.034258 -6.0152 0.034258 c-2.0063 0 -4.5092 -0.0089064 -7.5012 -0.034805 c-4.8264 -0.042108 -8.6856 -1.0842 -11.47 -3.0979 c-2.767 -2.0014 -4.2908 -4.9124 -4.2908 -8.1972 c0 -3.2826 1.5371 -6.2004 4.328 -8.2148 c2.766 -1.9969 6.7232 -3.0621 11.444 -3.0804 c8.882 -0.034258 13.438 0.00054688 13.483 0.00082032 l2.3244 0.01832 l-0.036641 4.6492 l-2.3244 -0.01832 c-0.044728 -0.0005078 -4.5784 -0.035039 -13.429 -0.00078124 c-6.8716 0.02668 -11.14 2.5732 -11.14 6.6464 c0 1.8039 0.79624 3.2946 2.3662 4.43 c1.9587 1.4167 4.9968 2.1832 8.7852 2.2161 c8.8288 0.077148 13.352 0.0017969 13.396 0.0010156 z M121.356 22.009 c-0.43632 0.24117 -0.88236 0.64612 -0.88236 1.8193 c0 0.91448 0.29558 1.4144 1.0547 1.7822 c0.76772 0.37195 1.6239 0.39914 1.6671 0.4002 l17.067 0.06672 c2.9656 0 7.3912 1.8316 7.3912 6.8776 s-4.1128 6.8776 -6.8776 6.8776 l-24.997 0 l0 -4.6954 l24.977 0 c0.2048 -0.0070704 0.81636 -0.08422 1.3204 -0.36305 c0.43656 -0.24144 0.88256 -0.64636 0.88256 -1.8193 c0 -0.91448 -0.29558 -1.4144 -1.0547 -1.7822 c-0.7654 -0.37094 -1.6208 -0.39894 -1.6686 -0.40024 l-17.056 -0.07586 l0 0.0091406 c-2.975 0 -7.4008 -1.8316 -7.4008 -6.8776 s4.1128 -6.8776 6.8776 -6.8776 l24.997 0 l0 4.6954 l-24.976 0 c-0.20457 0.0070704 -0.81668 0.08422 -1.321 0.36305 z"></path></g><g id="SvgjsG1622" featureKey="sloganFeature-0" transform="matrix(1.0090249547884558,0,0,1.0090249547884558,137.31637888740565,93.21940860826834)" fill="url(#SvgjsLinearGradient1636)"><path d="M4.458 11.0046 c-0.21816 0.12059 -0.44118 0.32306 -0.44118 0.90966 c0 0.45724 0.14779 0.70718 0.52734 0.89108 c0.38386 0.18598 0.81196 0.19957 0.83354 0.2001 l8.5334 0.03336 c1.4828 0 3.6956 0.9158 3.6956 3.4388 s-2.0564 3.4388 -3.4388 3.4388 l-12.499 0 l0 -2.3477 l12.488 0 c0.1024 -0.0035352 0.40818 -0.04211 0.66022 -0.18152 c0.21828 -0.12072 0.44128 -0.32318 0.44128 -0.90964 c0 -0.45724 -0.14779 -0.70718 -0.52734 -0.89108 c-0.3827 -0.18547 -0.81038 -0.19947 -0.8343 -0.20012 l-8.5278 -0.03793 l0 0.0045703 c-1.4875 0 -3.7004 -0.9158 -3.7004 -3.4388 s2.0564 -3.4388 3.4388 -3.4388 l12.499 0 l0 2.3477 l-12.488 0 c-0.10229 0.0035352 -0.40834 0.04211 -0.6605 0.18152 z M26.2512 8.475 l15.938 0 l0 2.3477 l-6.7954 0 l0 9.0932 l-2.3476 0 l0 -9.0932 l-6.7946 0 l0 -2.3477 z M55.0194 7.711 l9.1766 12.19 l-2.9508 0 l-2.566 -3.3974 l-7.3197 0 l-2.5286 3.3974 l-2.9177 0 z M53.1202 14.1556 l3.7983 0 l-1.8992 -2.5322 z M87.66199999999999 17.619 l0.034746 2.3244 l-1.1621 0.017402 c-0.18049 0.002754 -0.38464 0.0058984 -0.60738 0.0058984 c-1.6091 0 -4.1898 -0.15982 -5.8222 -1.768 c-0.77534 -0.7638 -1.2442 -1.7492 -1.4014 -2.9364 c-0.85432 0.12438 -1.7942 0.19199 -2.8226 0.19199 l-1.641 0 l0 4.4852 l-2.3246 0 l0 -11.295 l2.3246 0 l0 4.4853 l1.641 0 c4.7582 0 7.2478 -1.6252 7.2478 -3.2308 l0 -1.1623 l2.3246 0 l0 1.1622 c0 1.9109 -1.4137 3.8334 -4.469 4.8392 c0.06213 0.77546 0.30946 1.3688 0.75204 1.8049 c1.1652 1.1478 3.5954 1.1114 4.7634 1.0939 z M98.68179999999998 20.02461 l-2.3246 0 l0 -11.295 l2.3246 0 l0 11.295 z M120.92899999999999 8.593 l2.3476 0 l0 11.25 l-13.59 -7.098 l0 7.2556 l-2.3477 0 l0 -11.25 l13.59 7.098 l0 -7.2556 z M147.70199999999997 14.394400000000001 c-0.019883 1.3657 -0.00015625 4.4302 0.00023438 4.4608 l0.0077148 1.1699 l-7.8979 0 c-2.3734 0 -4.3588 -0.53114 -5.7416 -1.5357 c-1.3856 -1.0067 -2.1486 -2.467 -2.1486 -4.112 c0 -1.3641 0.51466 -2.5964 1.4885 -3.563 c1.3944 -1.3842 3.6104 -2.1058 6.4102 -2.0846 c1.7076 0.012559 6.6666 0.00013672 6.7164 0 l1.1622 -0.0030078 l0.005879 2.3246 l-1.1622 0.0030078 c-0.050098 0.00013672 -5.0206 0.012695 -6.7396 0 c-2.1376 -0.016875 -3.824 0.4851 -4.7556 1.4098 c-0.53204 0.52812 -0.80174 1.1717 -0.80174 1.9133 c0 2.0496 2.1326 3.323 5.5658 3.323 l5.5599 0 c-0.0024804 -0.63696 -0.0043164 -1.4395 -0.0024804 -2.1608 l-4.4771 0 l0 -2.3246 l6.8269 0 z"></path></g>
			</g>
		</svg>
	